<?xml version="1.0" encoding="UTF-8"?>
<svg width="18px" height="16px" viewBox="0 0 18 16" version="1.1" xmlns="http://www.w3.org/2000/svg" xmlns:xlink="http://www.w3.org/1999/xlink">
    <title>icon-set/marquee-w</title>
    <g id="icon-set-Web最新整理" stroke="none" stroke-width="1" fill="none" fill-rule="evenodd">
        <g id="images" transform="translate(-185.000000, -280.000000)" fill="#FFFFFF">
            <g id="icon-set/marquee-w" transform="translate(185.000000, 280.000000)">
                <path d="M13.0404,0.391840337 C13.3864,-0.0593535217 14.0154,-0.131754397 14.4454,0.231299267 C16.7044,2.13470778 18.0004,4.9677855 18.0004,7.99917866 C18.0004,11.0316211 16.7054,13.8626003 14.4464,15.7691566 C14.2614,15.9244513 14.0404,16 13.8204,16 C13.5274,16 13.2374,15.8656911 13.0404,15.6086156 C12.6944,15.1574217 12.7624,14.4963702 13.1924,14.1333166 C14.9764,12.6275882 16.0004,10.3926047 16.0004,7.99917866 C16.0004,5.60575263 14.9764,3.3707691 13.1934,1.86713933 C12.7624,1.50408566 12.6944,0.843034197 13.0404,0.391840337 Z M6.301,2.05233867 C6.934,1.40178008 8,1.87291041 8,2.80257962 L8,2.80257962 L8,13.196827 C8,14.1264962 6.934,14.5976265 6.301,13.9470679 L6.301,13.9470679 L3.575,11.1475674 L1,11.1475674 C0.448,11.1475674 0,10.6774864 0,10.0982794 L0,10.0982794 L0,5.90112722 C0,5.32192021 0.448,4.85183917 1,4.85183917 L1,4.85183917 L3.575,4.85183917 Z M10.8341,2.67225804 C11.1501,2.19902914 11.7741,2.08150888 12.2271,2.41623176 C13.9631,3.69321531 15.0001,5.78129852 15.0001,7.99949345 C15.0001,10.2176884 13.9631,12.3057716 12.2271,13.5827551 C12.0521,13.7118176 11.8521,13.7737256 11.6531,13.7737256 C11.3381,13.7737256 11.0281,13.6173816 10.8341,13.3267288 C10.5171,12.8524507 10.6261,12.1976949 11.0781,11.8661199 C12.2811,10.9805208 13.0001,9.53460186 13.0001,7.99949345 C13.0001,6.46438504 12.2811,5.01846611 11.0781,4.132867 C10.6261,3.80129198 10.5171,3.14653624 10.8341,2.67225804 Z M8.4911,5.17900718 C8.6951,4.63967313 9.2771,4.37840041 9.7901,4.59035659 C11.1331,5.15067641 12.0001,6.48956795 12.0001,7.99949345 C12.0001,9.51046823 11.1331,10.8493598 9.7901,11.4096796 C9.6691,11.4600454 9.5441,11.4831298 9.4211,11.4831298 C9.0231,11.4831298 8.6471,11.2333992 8.4911,10.821029 C8.2881,10.2837935 8.5381,9.67310788 9.0521,9.45905312 C9.6281,9.21876615 10.0001,8.64585488 10.0001,7.99949345 C10.0001,7.3541813 9.6281,6.78127003 9.0521,6.54098306 C8.5381,6.3269283 8.2881,5.71624266 8.4911,5.17900718 Z" id="Combined-Shape"></path>
            </g>
        </g>
    </g>
</svg>